<mxfile host="app.diagrams.net" modified="2023-05-21T13:50:18.535Z" agent="Mozilla/5.0 (Windows NT 10.0; Win64; x64) AppleWebKit/537.36 (KHTML, like Gecko) Chrome/112.0.0.0 Safari/537.36" etag="Aav1Zd4aKEY75kfun4CY" version="21.3.2" type="github">
  <diagram name="ページ1" id="9fHowNnySCk1MtRCuJVS">
    <mxGraphModel dx="561" dy="490" grid="1" gridSize="10" guides="1" tooltips="1" connect="1" arrows="1" fold="1" page="1" pageScale="1" pageWidth="827" pageHeight="1169" background="#ffffff" math="0" shadow="0">
      <root>
        <mxCell id="0" />
        <mxCell id="1" parent="0" />
        <mxCell id="zQ7_M74mP9OxQntadWws-9" value="" style="curved=1;endArrow=none;html=1;rounded=0;endFill=0;strokeColor=#FF3333;strokeWidth=3;" edge="1" parent="1">
          <mxGeometry width="50" height="50" relative="1" as="geometry">
            <mxPoint x="330" y="490" as="sourcePoint" />
            <mxPoint x="530" y="490" as="targetPoint" />
            <Array as="points">
              <mxPoint x="370" y="470" />
              <mxPoint x="400" y="420" />
              <mxPoint x="430" y="330" />
              <mxPoint x="460" y="420" />
              <mxPoint x="480" y="470" />
            </Array>
          </mxGeometry>
        </mxCell>
        <mxCell id="zQ7_M74mP9OxQntadWws-10" value="" style="endArrow=classic;html=1;rounded=0;strokeColor=#000000;" edge="1" parent="1">
          <mxGeometry width="50" height="50" relative="1" as="geometry">
            <mxPoint x="290" y="500" as="sourcePoint" />
            <mxPoint x="290" y="320" as="targetPoint" />
          </mxGeometry>
        </mxCell>
        <mxCell id="zQ7_M74mP9OxQntadWws-15" value="&lt;font&gt;V&lt;/font&gt;" style="text;html=1;strokeColor=none;fillColor=none;align=center;verticalAlign=middle;whiteSpace=wrap;rounded=0;fontFamily=Times New Roman;fontColor=#000000;" vertex="1" parent="1">
          <mxGeometry x="250" y="320" width="40" height="30" as="geometry" />
        </mxCell>
        <mxCell id="zQ7_M74mP9OxQntadWws-16" value="&lt;font&gt;E&lt;sub&gt;cm&lt;/sub&gt;&lt;/font&gt;" style="text;html=1;strokeColor=none;fillColor=none;align=center;verticalAlign=middle;whiteSpace=wrap;rounded=0;fontFamily=Times New Roman;fontColor=#000000;" vertex="1" parent="1">
          <mxGeometry x="650" y="310" width="40" height="30" as="geometry" />
        </mxCell>
        <mxCell id="zQ7_M74mP9OxQntadWws-17" value="" style="endArrow=classic;startArrow=classic;html=1;rounded=0;strokeColor=#000000;" edge="1" parent="1">
          <mxGeometry width="50" height="50" relative="1" as="geometry">
            <mxPoint x="430" y="490" as="sourcePoint" />
            <mxPoint x="430" y="360" as="targetPoint" />
          </mxGeometry>
        </mxCell>
        <mxCell id="zQ7_M74mP9OxQntadWws-18" value="&lt;font&gt;V&lt;sub&gt;c&lt;/sub&gt;&lt;/font&gt;" style="text;html=1;strokeColor=none;fillColor=none;align=center;verticalAlign=middle;whiteSpace=wrap;rounded=0;fontFamily=Times New Roman;fontColor=#000000;" vertex="1" parent="1">
          <mxGeometry x="401" y="410" width="26" height="30" as="geometry" />
        </mxCell>
        <mxCell id="zQ7_M74mP9OxQntadWws-19" value="" style="curved=1;endArrow=classic;html=1;rounded=0;strokeColor=#000000;" edge="1" parent="1">
          <mxGeometry width="50" height="50" relative="1" as="geometry">
            <mxPoint x="650" y="340" as="sourcePoint" />
            <mxPoint x="460" y="360" as="targetPoint" />
            <Array as="points">
              <mxPoint x="610" y="340" />
              <mxPoint x="560" y="340" />
              <mxPoint x="490" y="340" />
            </Array>
          </mxGeometry>
        </mxCell>
        <mxCell id="zQ7_M74mP9OxQntadWws-20" value="" style="curved=1;endArrow=classic;html=1;rounded=0;strokeColor=#000000;" edge="1" parent="1">
          <mxGeometry width="50" height="50" relative="1" as="geometry">
            <mxPoint x="650" y="340" as="sourcePoint" />
            <mxPoint x="460" y="370" as="targetPoint" />
            <Array as="points">
              <mxPoint x="615" y="340" />
              <mxPoint x="565" y="340" />
              <mxPoint x="500" y="350" />
            </Array>
          </mxGeometry>
        </mxCell>
        <mxCell id="zQ7_M74mP9OxQntadWws-21" value="" style="curved=1;endArrow=classic;html=1;rounded=0;strokeColor=#000000;" edge="1" parent="1">
          <mxGeometry width="50" height="50" relative="1" as="geometry">
            <mxPoint x="650" y="320" as="sourcePoint" />
            <mxPoint x="440" y="350" as="targetPoint" />
            <Array as="points">
              <mxPoint x="610" y="320" />
              <mxPoint x="560" y="320" />
              <mxPoint x="490" y="320" />
            </Array>
          </mxGeometry>
        </mxCell>
        <mxCell id="zQ7_M74mP9OxQntadWws-22" value="" style="curved=1;endArrow=classic;html=1;rounded=0;strokeColor=#000000;" edge="1" parent="1">
          <mxGeometry width="50" height="50" relative="1" as="geometry">
            <mxPoint x="650" y="310" as="sourcePoint" />
            <mxPoint x="420" y="340" as="targetPoint" />
            <Array as="points">
              <mxPoint x="610" y="310" />
              <mxPoint x="560" y="310" />
              <mxPoint x="490" y="310" />
            </Array>
          </mxGeometry>
        </mxCell>
        <mxCell id="zQ7_M74mP9OxQntadWws-23" value="" style="ellipse;whiteSpace=wrap;html=1;fillColor=none;strokeColor=#0000FF;rotation=60;" vertex="1" parent="1">
          <mxGeometry x="430.83" y="346.25" width="50" height="35" as="geometry" />
        </mxCell>
        <mxCell id="zQ7_M74mP9OxQntadWws-25" value="&lt;font style=&quot;font-size: 14px;&quot;&gt;T&lt;sub style=&quot;font-size: 14px;&quot;&gt;l&lt;/sub&gt;=0&lt;/font&gt;" style="text;html=1;strokeColor=none;fillColor=none;align=center;verticalAlign=middle;whiteSpace=wrap;rounded=0;fontColor=#0000FF;fontFamily=Times New Roman;fontSize=14;" vertex="1" parent="1">
          <mxGeometry x="460" y="370" width="60" height="30" as="geometry" />
        </mxCell>
        <mxCell id="zQ7_M74mP9OxQntadWws-26" value="" style="ellipse;whiteSpace=wrap;html=1;fillColor=none;strokeColor=#009900;rotation=60;fontColor=none;noLabel=1;" vertex="1" parent="1">
          <mxGeometry x="401.63" y="327.29" width="35.52" height="30.91" as="geometry" />
        </mxCell>
        <mxCell id="zQ7_M74mP9OxQntadWws-28" value="T&lt;sub style=&quot;font-size: 14px;&quot;&gt;l計算可能&lt;/sub&gt;" style="text;html=1;strokeColor=none;fillColor=none;align=center;verticalAlign=middle;whiteSpace=wrap;rounded=0;fontColor=#009900;fontFamily=Times New Roman;fontSize=14;" vertex="1" parent="1">
          <mxGeometry x="330" y="327.29" width="71.63" height="30" as="geometry" />
        </mxCell>
        <mxCell id="zQ7_M74mP9OxQntadWws-29" value="" style="ellipse;whiteSpace=wrap;html=1;fillColor=none;strokeColor=#FF66FF;rotation=60;fontColor=#ffffff;noLabel=1;" vertex="1" parent="1">
          <mxGeometry x="480.83" y="310" width="80.51" height="45.68" as="geometry" />
        </mxCell>
        <mxCell id="zQ7_M74mP9OxQntadWws-30" value="エネルギー散逸" style="text;html=1;strokeColor=none;fillColor=none;align=center;verticalAlign=middle;whiteSpace=wrap;rounded=0;fontColor=#FF66FF;fontFamily=Times New Roman;fontSize=12;" vertex="1" parent="1">
          <mxGeometry x="520" y="360" width="100" height="30" as="geometry" />
        </mxCell>
      </root>
    </mxGraphModel>
  </diagram>
</mxfile>
